<svg width="48" height="48" viewBox="0 0 48 48" fill="none" xmlns="http://www.w3.org/2000/svg">
<path d="M15.2757 0.0400808C18.0962 -0.412868 21.0839 3.02421 21.9444 7.76685C22.8049 12.4828 21.2512 16.6926 18.4308 17.1722C15.6342 17.6518 12.6226 14.2147 11.7382 9.47207C10.8538 4.75608 12.4552 0.546318 15.2757 0.0400808ZM32.3658 0.0400808C35.2101 0.546318 36.7877 4.75608 35.9511 9.47207C35.0428 14.2147 32.055 17.6518 29.2346 17.1722C26.3902 16.6926 24.8366 12.4828 25.721 7.76685C26.5814 3.02421 29.5692 -0.412868 32.3658 0.0400808ZM2.48803 12.2963C5.21288 10.9908 8.91772 13.3621 10.8538 17.4919C12.6704 21.7017 12.0489 26.1246 9.34796 27.4302C6.64701 28.7357 2.96608 26.391 1.0778 22.2079C-0.81047 18.0248 -0.141209 13.5753 2.48803 12.2963ZM45.512 12.2963C48.1412 13.5753 48.8105 18.0248 46.9222 22.2079C45.0339 26.391 41.353 28.7357 38.652 27.4302C35.9511 26.1246 35.3296 21.7017 37.1462 17.4919C39.0823 13.3621 42.7871 10.9908 45.512 12.2963ZM41.5203 41.0186C41.6159 43.5231 39.895 46.2941 37.8394 47.3332C33.5609 49.5181 28.4936 44.9886 23.7371 44.9886C18.9805 44.9886 13.8655 49.7046 9.65869 47.3332C7.26847 46.0277 5.61922 42.564 5.92995 39.6864C6.36019 35.7164 10.6387 33.5849 13.1723 30.6807C16.5425 26.9239 18.9327 19.8632 23.7371 19.8632C28.5175 19.8632 31.0511 26.8173 34.2779 30.6807C36.9311 33.9313 41.353 36.6756 41.5203 41.0186Z" fill="url(#paint0_linear)"/>
<defs>
<linearGradient id="paint0_linear" x1="24" y1="0" x2="24" y2="91.5" gradientUnits="userSpaceOnUse">
<stop stop-color="#FF9C36"/>
<stop offset="1" stop-color="#B9B2B2" stop-opacity="0"/>
</linearGradient>
</defs>
</svg>
